<?xml version="1.0" encoding="UTF-8"?>
<svg width="20px" height="20px" viewBox="0 0 20 20" version="1.1" xmlns="http://www.w3.org/2000/svg" xmlns:xlink="http://www.w3.org/1999/xlink">
    <!-- Generator: Sketch 50.2 (55047) - http://www.bohemiancoding.com/sketch -->
    <title>Alert</title>
    <desc>Created with Sketch.</desc>
    <defs></defs>
    <g id="Team-B:-Flow-2-NSE-Sales-Desktop" stroke="none" stroke-width="1" fill="none" fill-rule="evenodd">
        <g id="PF-24-Confirmation" transform="translate(-972.000000, -1260.000000)" fill="#000000" fill-rule="nonzero">
            <g id="Group-7" transform="translate(972.000000, 1260.000000)">
                <g id="Alert">
                    <path d="M19.3605556,8.45888889 L11.5405556,0.638888889 C11.115,0.212222222 10.5572222,0 9.99944444,0 C9.44166667,0 8.88388889,0.212222222 8.45833333,0.638888889 L0.638333333,8.45888889 C-0.212777778,9.31 -0.212777778,10.69 0.638333333,11.5411111 L8.45833333,19.3611111 C8.88388889,19.7877778 9.44166667,20 9.99944444,20 C10.5572222,20 11.115,19.7877778 11.5405556,19.3611111 L19.3605556,11.5411111 C20.2127778,10.69 20.2127778,9.31 19.3605556,8.45888889 Z M18.4772222,10.6577778 L10.6572222,18.4777778 C10.4816667,18.6533333 10.2472222,18.75 9.99944444,18.75 C9.75166667,18.75 9.51722222,18.6533333 9.34166667,18.4777778 L1.52166667,10.6577778 C1.34611111,10.4822222 1.24944444,10.2477778 1.24944444,10 C1.24944444,9.75222222 1.34611111,9.51777778 1.52166667,9.34222222 L9.34166667,1.52222222 C9.51722222,1.34666667 9.75166667,1.25 9.99944444,1.25 C10.2472222,1.25 10.4816667,1.34666667 10.6572222,1.52222222 L18.4772222,9.34222222 C18.6527778,9.51777778 18.7494444,9.75222222 18.7494444,10 C18.7494444,10.2477778 18.6527778,10.4822222 18.4772222,10.6577778 Z" id="Shape"></path>
                    <polygon id="Shape" points="10.1477778 12.0355556 10.5244444 7.85666667 10.5244444 5 9 5 9 7.85666667 9.37666667 12.0355556"></polygon>
                    <rect id="Rectangle-path" x="9" y="13" width="1.66111111" height="1.69666667"></rect>
                </g>
            </g>
        </g>
    </g>
</svg>