<?xml version="1.0" encoding="utf-8"?>
<!-- Generator: Adobe Illustrator 21.1.0, SVG Export Plug-In . SVG Version: 6.00 Build 0)  -->
<svg version="1.1" id="Layer_1" xmlns="http://www.w3.org/2000/svg" xmlns:xlink="http://www.w3.org/1999/xlink" x="0px" y="0px"
	 viewBox="0 0 181 113" style="enable-background:new 0 0 181 113;" xml:space="preserve">
<style type="text/css">
	.st0{fill:#55B76C;}
	.st1{fill:#68DD89;}
	.st2{opacity:0.4;fill:#FFFFFF;enable-background:new    ;}
</style>
<title>7CEA514D-A119-474B-B689-E83E2D49B0AD</title>
<desc>Created with sketchtool.</desc>
<path id="Rectangle-30" class="st0" d="M4.5,0.5h172c2.2,0,4,1.8,4,4v104c0,2.2-1.8,4-4,4H4.5c-2.2,0-4-1.8-4-4V4.5
	C0.5,2.3,2.3,0.5,4.5,0.5z"/>
<path id="Rectangle-30_1_" class="st1" d="M5,0h172c2.2,0,4,1.8,4,4v104c0,2.2-1.8,4-4,4H5c-2.2,0-4-1.8-4-4V4C1,1.8,2.8,0,5,0z"/>
<path id="Rectangle-589" class="st2" d="M14,112h77.1h76c-0.3-42-34.4-76-76.5-76S14.3,70,14,112z"/>
</svg>
