<?xml version="1.0" encoding="utf-8"?>
<!-- Generator: Adobe Illustrator 22.1.0, SVG Export Plug-In . SVG Version: 6.00 Build 0)  -->
<svg version="1.1" id="Ebene_1" xmlns="http://www.w3.org/2000/svg" xmlns:xlink="http://www.w3.org/1999/xlink" x="0px" y="0px"
	 viewBox="0 0 18 18" style="enable-background:new 0 0 18 18;" xml:space="preserve">
<g>
	<path d="M9,0C5.3,0,2.3,3,2.3,6.7c0,0.9,0.2,1.8,0.5,2.7C3.8,11.6,9,18,9,18s4.7-5.8,6-8.5c0.4-0.9,0.7-2.2,0.7-2.8
		C15.7,3,12.7,0,9,0z M14,9c-0.9,1.9-3.6,5.4-5,7.2C7.3,14,4.5,10.3,3.9,8.9C3.5,8.2,3.4,7.5,3.4,6.7c0-3.1,2.5-5.6,5.6-5.6
		s5.6,2.5,5.6,5.6C14.6,7.2,14.4,8.3,14,9z"/>
	<path d="M9,3.4c-1.9,0-3.4,1.5-3.4,3.4s1.5,3.4,3.4,3.4s3.4-1.5,3.4-3.4S10.8,3.4,9,3.4z M9,9C7.7,9,6.7,8,6.7,6.8s1-2.2,2.2-2.2
		s2.2,1,2.2,2.2S10.2,9,9,9z"/>
</g>
</svg>
