
<svg version="1.1" id="Ebene_1" xmlns="http://www.w3.org/2000/svg" xmlns:xlink="http://www.w3.org/1999/xlink" x="0px" y="0px"
	 viewBox="0 0 18 18" style="enable-background:new 0 0 18 18;" xml:space="preserve">
<g>
	<path d="M14.625,11.241L14.625,11.241l0-5.616C14.625,2.518,12.107,0,9,0S3.375,2.518,3.375,5.625v5.616L0,13.5v1.125h3.375h11.25
		H18V13.5L14.625,11.241z M14.625,13.5H3.375H2.023l1.978-1.324L4.5,11.842v-0.601V5.625c0-2.481,2.019-4.5,4.5-4.5
		s4.5,2.019,4.5,4.5l0,5.616v0.601l0.499,0.334l1.978,1.324H14.625z"/>
	<path d="M9,18c1.243,0,2.25-1.007,2.25-2.25h-4.5C6.75,16.993,7.757,18,9,18z"/>
</g>
</svg>
