
<svg version="1.1" id="Ebene_1" xmlns="http://www.w3.org/2000/svg" xmlns:xlink="http://www.w3.org/1999/xlink" x="0px" y="0px"
	 viewBox="0 0 18 18" style="enable-background:new 0 0 18 18;" xml:space="preserve">
<path d="M9,1.125c4.342,0,7.875,3.533,7.875,7.875S13.342,16.875,9,16.875S1.125,13.342,1.125,9S4.658,1.125,9,1.125 M9,0
	C4.029,0,0,4.029,0,9s4.029,9,9,9s9-4.029,9-9S13.971,0,9,0L9,0z"/>
<g>
	<path d="M8.438,12.938H5.062V5.062h3.375V12.938z M6.188,11.812h1.125V6.188H6.188V11.812z"/>
</g>
<g>
	<path d="M12.938,12.938H9.562V5.062h3.375V12.938z M10.688,11.812h1.125V6.188h-1.125V11.812z"/>
</g>
</svg>
