<svg xmlns="http://www.w3.org/2000/svg" viewBox="0 0 15.75001 18"><title>icon</title><path d="M6.25147,8.29649v3.4938H9.49812V8.29686a2.74168,2.74168,0,1,0-3.24665-.00037ZM7.875,4.46376a1.62444,1.62444,0,0,1,.79211,3.04312l-.285.16v3.0076H7.36744V7.66683L7.082,7.5072a1.62479,1.62479,0,0,1,.793-3.04344Z"/><path d="M0,0V5.96142C0,10.84613,3.09925,15.20212,7.875,18c4.77533-2.79788,7.875-7.15387,7.875-12.03858V0ZM14.62465,5.96142c0,4.131-2.45112,8.00772-6.74964,10.72234-4.299-2.71462-6.75007-6.59247-6.75007-10.72234V1.125H14.62465Z"/></svg>